<mxfile host="app.diagrams.net" modified="2022-12-23T10:32:41.795Z" agent="5.0 (Windows NT 10.0; Win64; x64) AppleWebKit/537.36 (KHTML, like Gecko) Chrome/108.0.0.0 Safari/537.36" version="20.7.4" etag="TKRhu5Ma1HhAvpyBaW7I" type="github">
  <diagram id="xUuNdD5Vor1HBEt4MOgl" name="第 1 页">
    <mxGraphModel dx="1434" dy="707" grid="1" gridSize="10" guides="1" tooltips="1" connect="1" arrows="1" fold="1" page="1" pageScale="1" pageWidth="827" pageHeight="1169" math="0" shadow="0">
      <root>
        <mxCell id="0" />
        <mxCell id="1" parent="0" />
        <mxCell id="1oA0DjMyb-HiSa-5rZvI-1" value="*.go" style="rounded=0;whiteSpace=wrap;html=1;" vertex="1" parent="1">
          <mxGeometry x="70" y="360" width="90" height="40" as="geometry" />
        </mxCell>
        <mxCell id="1oA0DjMyb-HiSa-5rZvI-2" value="*.go" style="rounded=0;whiteSpace=wrap;html=1;" vertex="1" parent="1">
          <mxGeometry x="280" y="360" width="90" height="40" as="geometry" />
        </mxCell>
        <mxCell id="1oA0DjMyb-HiSa-5rZvI-3" value="" style="endArrow=classic;html=1;rounded=0;entryX=0;entryY=0.5;entryDx=0;entryDy=0;" edge="1" parent="1" target="1oA0DjMyb-HiSa-5rZvI-2">
          <mxGeometry width="50" height="50" relative="1" as="geometry">
            <mxPoint x="160" y="380" as="sourcePoint" />
            <mxPoint x="210" y="330" as="targetPoint" />
          </mxGeometry>
        </mxCell>
        <mxCell id="1oA0DjMyb-HiSa-5rZvI-4" value="iast tool" style="text;html=1;align=center;verticalAlign=middle;resizable=0;points=[];autosize=1;strokeColor=none;fillColor=none;" vertex="1" parent="1">
          <mxGeometry x="180" y="360" width="60" height="30" as="geometry" />
        </mxCell>
        <mxCell id="1oA0DjMyb-HiSa-5rZvI-6" value="app" style="rounded=0;whiteSpace=wrap;html=1;" vertex="1" parent="1">
          <mxGeometry x="470" y="360" width="90" height="40" as="geometry" />
        </mxCell>
        <mxCell id="1oA0DjMyb-HiSa-5rZvI-7" value="" style="edgeStyle=none;orthogonalLoop=1;jettySize=auto;html=1;rounded=0;" edge="1" parent="1">
          <mxGeometry width="100" relative="1" as="geometry">
            <mxPoint x="370" y="380" as="sourcePoint" />
            <mxPoint x="470" y="380" as="targetPoint" />
            <Array as="points" />
          </mxGeometry>
        </mxCell>
        <mxCell id="1oA0DjMyb-HiSa-5rZvI-8" value="go build" style="text;html=1;align=center;verticalAlign=middle;resizable=0;points=[];autosize=1;strokeColor=none;fillColor=none;" vertex="1" parent="1">
          <mxGeometry x="390" y="355" width="70" height="30" as="geometry" />
        </mxCell>
        <mxCell id="1oA0DjMyb-HiSa-5rZvI-9" value="change codes" style="swimlane;whiteSpace=wrap;html=1;" vertex="1" parent="1">
          <mxGeometry x="130" y="430" width="200" height="90" as="geometry" />
        </mxCell>
        <mxCell id="1oA0DjMyb-HiSa-5rZvI-10" value="import _ &quot;agent-go/run/base&quot;&lt;br&gt;import _&amp;nbsp;&quot;agent-go/run/gin&quot;&amp;nbsp; &amp;nbsp;" style="text;html=1;align=center;verticalAlign=middle;resizable=0;points=[];autosize=1;strokeColor=none;fillColor=none;" vertex="1" parent="1oA0DjMyb-HiSa-5rZvI-9">
          <mxGeometry x="10" y="40" width="180" height="40" as="geometry" />
        </mxCell>
        <mxCell id="1oA0DjMyb-HiSa-5rZvI-19" value="" style="shape=curlyBracket;whiteSpace=wrap;html=1;rounded=1;flipH=1;labelPosition=right;verticalLabelPosition=middle;align=left;verticalAlign=middle;" vertex="1" parent="1">
          <mxGeometry x="600" y="320" width="20" height="120" as="geometry" />
        </mxCell>
        <mxCell id="1oA0DjMyb-HiSa-5rZvI-20" value="编译时" style="text;html=1;align=center;verticalAlign=middle;resizable=0;points=[];autosize=1;strokeColor=none;fillColor=none;" vertex="1" parent="1">
          <mxGeometry x="620" y="365" width="60" height="30" as="geometry" />
        </mxCell>
        <mxCell id="1oA0DjMyb-HiSa-5rZvI-21" value="" style="endArrow=none;html=1;rounded=0;exitX=0.5;exitY=0;exitDx=0;exitDy=0;edgeStyle=orthogonalEdgeStyle;curved=1;" edge="1" parent="1" source="1oA0DjMyb-HiSa-5rZvI-9">
          <mxGeometry width="50" height="50" relative="1" as="geometry">
            <mxPoint x="280" y="520" as="sourcePoint" />
            <mxPoint x="210" y="380" as="targetPoint" />
          </mxGeometry>
        </mxCell>
        <mxCell id="1oA0DjMyb-HiSa-5rZvI-22" value="" style="endArrow=classic;html=1;rounded=0;curved=1;" edge="1" parent="1">
          <mxGeometry width="50" height="50" relative="1" as="geometry">
            <mxPoint x="520" y="400" as="sourcePoint" />
            <mxPoint x="520" y="540" as="targetPoint" />
          </mxGeometry>
        </mxCell>
        <mxCell id="1oA0DjMyb-HiSa-5rZvI-25" value="运行" style="text;html=1;align=center;verticalAlign=middle;resizable=0;points=[];autosize=1;strokeColor=none;fillColor=none;" vertex="1" parent="1">
          <mxGeometry x="515" y="445" width="50" height="30" as="geometry" />
        </mxCell>
        <mxCell id="1oA0DjMyb-HiSa-5rZvI-26" value="" style="shape=curlyBracket;whiteSpace=wrap;html=1;rounded=1;flipH=1;labelPosition=right;verticalLabelPosition=middle;align=left;verticalAlign=middle;" vertex="1" parent="1">
          <mxGeometry x="600" y="525" width="20" height="120" as="geometry" />
        </mxCell>
        <mxCell id="1oA0DjMyb-HiSa-5rZvI-27" value="运行时" style="text;html=1;align=center;verticalAlign=middle;resizable=0;points=[];autosize=1;strokeColor=none;fillColor=none;" vertex="1" parent="1">
          <mxGeometry x="620" y="570" width="60" height="30" as="geometry" />
        </mxCell>
        <mxCell id="1oA0DjMyb-HiSa-5rZvI-28" value="执行 import 的 init() 函数，hook关键函数" style="whiteSpace=wrap;html=1;" vertex="1" parent="1">
          <mxGeometry x="480" y="540" width="80" height="40" as="geometry" />
        </mxCell>
        <mxCell id="1oA0DjMyb-HiSa-5rZvI-30" value="iast config file" style="rounded=0;whiteSpace=wrap;html=1;" vertex="1" parent="1">
          <mxGeometry x="350" y="540" width="90" height="40" as="geometry" />
        </mxCell>
        <mxCell id="1oA0DjMyb-HiSa-5rZvI-31" value="" style="curved=1;endArrow=classic;html=1;rounded=0;entryX=0.04;entryY=0.833;entryDx=0;entryDy=0;entryPerimeter=0;" edge="1" parent="1" target="1oA0DjMyb-HiSa-5rZvI-25">
          <mxGeometry width="50" height="50" relative="1" as="geometry">
            <mxPoint x="389" y="540" as="sourcePoint" />
            <mxPoint x="439" y="490" as="targetPoint" />
            <Array as="points">
              <mxPoint x="439" y="540" />
              <mxPoint x="389" y="490" />
            </Array>
          </mxGeometry>
        </mxCell>
        <mxCell id="1oA0DjMyb-HiSa-5rZvI-34" value="" style="verticalLabelPosition=bottom;verticalAlign=top;html=1;shape=mxgraph.basic.layered_rect;dx=10;outlineConnect=0;whiteSpace=wrap;" vertex="1" parent="1">
          <mxGeometry x="10" y="460" width="60" height="40" as="geometry" />
        </mxCell>
        <mxCell id="1oA0DjMyb-HiSa-5rZvI-35" value="IAST" style="text;html=1;align=center;verticalAlign=middle;resizable=0;points=[];autosize=1;strokeColor=none;fillColor=none;" vertex="1" parent="1">
          <mxGeometry x="10" y="460" width="50" height="30" as="geometry" />
        </mxCell>
        <mxCell id="1oA0DjMyb-HiSa-5rZvI-36" value="" style="endArrow=none;dashed=1;html=1;dashPattern=1 3;strokeWidth=2;rounded=0;curved=1;" edge="1" parent="1">
          <mxGeometry width="50" height="50" relative="1" as="geometry">
            <mxPoint x="80" y="479.5" as="sourcePoint" />
            <mxPoint x="120" y="479.5" as="targetPoint" />
          </mxGeometry>
        </mxCell>
      </root>
    </mxGraphModel>
  </diagram>
</mxfile>
